<svg xmlns="http://www.w3.org/2000/svg" xmlns:xlink="http://www.w3.org/1999/xlink" width="140" height="54.654" viewBox="0 0 140 54.654">
  <defs>
    <clipPath id="clip-path">
      <rect id="Rectangle_79" data-name="Rectangle 79" width="140" height="54.654" fill="none"/>
    </clipPath>
  </defs>
  <g id="Group_115" data-name="Group 115" transform="translate(-5 0)">
    <g id="Group_114" data-name="Group 114" transform="translate(5 0)" clip-path="url(#clip-path)">
      <path id="Path_75" data-name="Path 75" d="M29.565,34.2l1.248.153a3.043,3.043,0,0,1-1.093,1.7,3.3,3.3,0,0,1-2.041.6,3.257,3.257,0,0,1-2.479-.962,3.762,3.762,0,0,1-.915-2.7A3.949,3.949,0,0,1,25.21,30.2a3.138,3.138,0,0,1,2.4-.994,3.047,3.047,0,0,1,2.335.974,3.868,3.868,0,0,1,.907,2.739c0,.072,0,.18-.008.322H25.533a2.721,2.721,0,0,0,.665,1.8,1.969,1.969,0,0,0,1.488.626,1.852,1.852,0,0,0,1.135-.351,2.31,2.31,0,0,0,.744-1.114M25.6,32.244h3.979a2.408,2.408,0,0,0-.457-1.347,1.852,1.852,0,0,0-1.495-.7,1.924,1.924,0,0,0-1.4.558,2.213,2.213,0,0,0-.626,1.49M32.861,36.5v-7.13h1.085v1.013A2.565,2.565,0,0,1,36.215,29.2a2.967,2.967,0,0,1,1.184.232,1.856,1.856,0,0,1,.808.61,2.3,2.3,0,0,1,.378.892,7.048,7.048,0,0,1,.067,1.176V36.5H37.443V32.157a3.323,3.323,0,0,0-.139-1.105,1.173,1.173,0,0,0-.5-.581,1.585,1.585,0,0,0-.843-.22,1.963,1.963,0,0,0-1.332.49,2.416,2.416,0,0,0-.559,1.861V36.5Zm7.689-2.13,1.192-.186a1.676,1.676,0,0,0,.563,1.1,1.942,1.942,0,0,0,1.285.383,1.9,1.9,0,0,0,1.234-.339,1.016,1.016,0,0,0,.4-.794.734.734,0,0,0-.356-.647,5.232,5.232,0,0,0-1.234-.408,11.205,11.205,0,0,1-1.842-.583,1.76,1.76,0,0,1-1.045-1.634,1.821,1.821,0,0,1,.22-.882,1.918,1.918,0,0,1,.593-.677,2.52,2.52,0,0,1,.768-.353,3.686,3.686,0,0,1,1.045-.144,4.121,4.121,0,0,1,1.473.244,1.992,1.992,0,0,1,.937.653,2.559,2.559,0,0,1,.415,1.1l-1.179.165a1.3,1.3,0,0,0-.469-.86,1.7,1.7,0,0,0-1.09-.311,1.976,1.976,0,0,0-1.187.275.8.8,0,0,0-.358.643.666.666,0,0,0,.149.425,1.058,1.058,0,0,0,.464.322c.121.044.477.148,1.067.307a14.485,14.485,0,0,1,1.787.563,1.791,1.791,0,0,1,.8.635A1.767,1.767,0,0,1,46.47,34.4a2.043,2.043,0,0,1-.353,1.139,2.3,2.3,0,0,1-1.018.826,3.693,3.693,0,0,1-1.5.291,3.35,3.35,0,0,1-2.118-.578,2.67,2.67,0,0,1-.929-1.713M53.106,36.5V35.449a2.613,2.613,0,0,1-2.264,1.208,2.906,2.906,0,0,1-1.177-.24,1.941,1.941,0,0,1-.811-.608,2.286,2.286,0,0,1-.375-.9,6.38,6.38,0,0,1-.072-1.129V29.365h1.208v3.954a7.1,7.1,0,0,0,.074,1.276,1.271,1.271,0,0,0,.482.749,1.508,1.508,0,0,0,.915.27,1.984,1.984,0,0,0,1.019-.277,1.548,1.548,0,0,0,.673-.757,3.816,3.816,0,0,0,.2-1.394V29.365h1.208V36.5Zm3.487,0v-7.13h1.087v1.08a2.94,2.94,0,0,1,.769-1,1.339,1.339,0,0,1,.774-.244,2.363,2.363,0,0,1,1.241.39l-.417,1.124a1.7,1.7,0,0,0-.883-.264,1.145,1.145,0,0,0-.712.238,1.294,1.294,0,0,0-.45.662,4.691,4.691,0,0,0-.2,1.409V36.5Zm10-2.3,1.248.153a3.05,3.05,0,0,1-1.092,1.7,3.3,3.3,0,0,1-2.041.6,3.257,3.257,0,0,1-2.479-.962,3.763,3.763,0,0,1-.917-2.7,3.949,3.949,0,0,1,.925-2.795,3.14,3.14,0,0,1,2.4-.994,3.044,3.044,0,0,1,2.335.974,3.868,3.868,0,0,1,.907,2.739c0,.072,0,.18-.007.322H62.558a2.729,2.729,0,0,0,.663,1.8,1.972,1.972,0,0,0,1.49.626,1.847,1.847,0,0,0,1.134-.351,2.3,2.3,0,0,0,.744-1.114m-3.965-1.955H66.6a2.408,2.408,0,0,0-.455-1.347,1.855,1.855,0,0,0-1.5-.7,1.92,1.92,0,0,0-1.4.558,2.214,2.214,0,0,0-.628,1.49M74.508,36.5v-.9a2.213,2.213,0,0,1-1.994,1.061,2.791,2.791,0,0,1-1.567-.47,3.1,3.1,0,0,1-1.108-1.313,4.551,4.551,0,0,1-.391-1.937A5.111,5.111,0,0,1,69.8,31a2.8,2.8,0,0,1,1.068-1.332,2.856,2.856,0,0,1,1.592-.465,2.379,2.379,0,0,1,1.965.981V26.651h1.2V36.5Zm-3.819-3.559a3.1,3.1,0,0,0,.578,2.049,1.741,1.741,0,0,0,1.364.679,1.715,1.715,0,0,0,1.344-.648,2.988,2.988,0,0,0,.554-1.979,3.351,3.351,0,0,0-.563-2.148,1.734,1.734,0,0,0-1.391-.684,1.671,1.671,0,0,0-1.345.657,3.252,3.252,0,0,0-.541,2.074M82.238,36.5V30.3H81.173v-.939h1.065v-.759a3.354,3.354,0,0,1,.128-1.068,1.547,1.547,0,0,1,.615-.763,2.208,2.208,0,0,1,1.233-.291,5.8,5.8,0,0,1,1.127.121l-.181,1.055a4.014,4.014,0,0,0-.712-.069,1.048,1.048,0,0,0-.778.235,1.271,1.271,0,0,0-.228.88v.658h1.387V30.3H83.44V36.5Zm8.732,0V35.449a2.613,2.613,0,0,1-2.264,1.208,2.911,2.911,0,0,1-1.177-.24,1.924,1.924,0,0,1-.81-.608,2.262,2.262,0,0,1-.375-.9,6.341,6.341,0,0,1-.074-1.129V29.365h1.208v3.954a7.1,7.1,0,0,0,.074,1.276,1.273,1.273,0,0,0,.484.749,1.5,1.5,0,0,0,.914.27,1.984,1.984,0,0,0,1.019-.277,1.54,1.54,0,0,0,.673-.757,3.816,3.816,0,0,0,.2-1.394V29.365h1.208V36.5Zm6.139-1.082.175,1.068a4.556,4.556,0,0,1-.912.107,2.071,2.071,0,0,1-1.023-.208,1.154,1.154,0,0,1-.507-.548,4.289,4.289,0,0,1-.149-1.426V30.3H93.8v-.939h.887V27.6l1.2-.726v2.492h1.214V30.3H95.894v4.17a2.128,2.128,0,0,0,.062.663.516.516,0,0,0,.208.237.813.813,0,0,0,.413.087,3.9,3.9,0,0,0,.531-.049m6.382,1.082V35.449a2.615,2.615,0,0,1-2.264,1.208,2.906,2.906,0,0,1-1.177-.24,1.941,1.941,0,0,1-.811-.608,2.26,2.26,0,0,1-.373-.9,6.183,6.183,0,0,1-.074-1.129V29.365H100v3.954a7.318,7.318,0,0,0,.072,1.276,1.281,1.281,0,0,0,.484.749,1.506,1.506,0,0,0,.914.27,1.986,1.986,0,0,0,1.021-.277,1.536,1.536,0,0,0,.672-.757,3.81,3.81,0,0,0,.2-1.394V29.365h1.208V36.5Zm3.487,0v-7.13h1.087v1.08a2.94,2.94,0,0,1,.769-1,1.335,1.335,0,0,1,.774-.244,2.363,2.363,0,0,1,1.241.39l-.417,1.124a1.7,1.7,0,0,0-.885-.264,1.148,1.148,0,0,0-.712.238,1.292,1.292,0,0,0-.448.662,4.691,4.691,0,0,0-.2,1.409V36.5Zm10-2.3,1.248.153a3.05,3.05,0,0,1-1.092,1.7,3.305,3.305,0,0,1-2.042.6,3.256,3.256,0,0,1-2.477-.962,3.755,3.755,0,0,1-.917-2.7,3.949,3.949,0,0,1,.925-2.795,3.138,3.138,0,0,1,2.4-.994,3.044,3.044,0,0,1,2.335.974,3.868,3.868,0,0,1,.907,2.739c0,.072,0,.18-.007.322h-5.316a2.729,2.729,0,0,0,.665,1.8,1.972,1.972,0,0,0,1.49.626,1.847,1.847,0,0,0,1.134-.351,2.3,2.3,0,0,0,.744-1.114m-3.965-1.955h3.979a2.408,2.408,0,0,0-.455-1.347,1.853,1.853,0,0,0-1.5-.7,1.92,1.92,0,0,0-1.4.558,2.206,2.206,0,0,0-.628,1.49" transform="translate(16.503 17.998)" fill="#004c9e"/>
      <path id="Path_76" data-name="Path 76" d="M1.658,4.165c7.151-5.553,14.6-5.553,21.752,0l1.659,1.288-3.692,4.78L19.711,8.94c-4.882-3.791-9.471-3.791-14.353,0L3.692,10.233,0,5.453Z" transform="translate(0 0.001)" fill="#f05b13" fill-rule="evenodd"/>
      <path id="Path_77" data-name="Path 77" d="M24.631,36.8H15.139q-5.359,0-7.954-3.168-2.34-2.872-2.049-7.9L6.219,7.2h6.154L11.36,24.484q-.217,3.673.843,5.3Q13.344,31.5,16.336,31.5h8.606Zm23.04,0H36.225a10.179,10.179,0,0,1-8.618-4.142Q24.491,28.5,24.875,21.936q.4-6.772,4.243-10.863A11.7,11.7,0,0,1,37.984,7.2H49.4l-.309,5.269H39.008a6.883,6.883,0,0,0-4.689,1.747,6.013,6.013,0,0,0-2.145,4.321l-.052.887H48.688l-.309,5.3H31.811l-.042.707a5.286,5.286,0,0,0,1.537,4.056,6.7,6.7,0,0,0,5.2,2.074h9.466Zm32.545,0H72.863L70.5,29.961H59.243L55.925,36.8H48.592L62.544,7.2h7.185ZM69.3,24.664,65.683,14.373l-4.7,10.291Zm39.572-2.728q-.537,9.175-4.783,12.492Q101.077,36.8,94.808,36.8H80.723L82.455,7.2h13.46q13.788,0,12.956,14.738m-6.913-.119a11.958,11.958,0,0,0-1.105-6.4,5.257,5.257,0,0,0-4.975-2.927H88.358L87.246,31.467H94.5a6.348,6.348,0,0,0,5.356-2.341c1.206-1.554,1.908-4,2.1-7.309m34.55,6.189q-.29,4.943-3.1,7.015-2.413,1.771-7.2,1.775H109.808l.312-5.329h14.886q4.379,0,4.58-3.435a3.035,3.035,0,0,0-1.172-2.754,4.183,4.183,0,0,0-2.644-.828h-7.279q-4.522,0-6.868-2.393a7.75,7.75,0,0,1-2.036-6.216,8.354,8.354,0,0,1,3.43-6.543,11.479,11.479,0,0,1,7.015-2.1H136.16l-.311,5.3H120.256q-3.55,0-3.742,3.226-.2,3.431,3.792,3.436h7.012q9.709,0,9.189,8.85" transform="translate(3.467 4.892)" fill="#004c9e"/>
    </g>
  </g>
</svg>
